# xmcd
#
# Track frame offsets: 
#        150
#        26342
#        49465
#        66902
#        91717
#        116327
#        143640
#        168342
#        179255
#
# Disc length: 2644 seconds
#
# Revision: 1
# Processed by: cddbd v1.5.1PL0 Copyright (c) Steve Scherf et al.
# Submitted via: ExactAudioCopy v0.95b2
#
DISCID=6f0a5209
DTITLE=Climax Blues Band - Rich Man
DYEAR=1972
DGENRE=Rock
TTITLE0=Rich Man
TTITLE1=Mole on the Dole
TTITLE2=You Make Me Sick
TTITLE3=Standing by a River
TTITLE4=Shake Your Love
TTITLE5=All the Time in the World
TTITLE6=If You Wanna Know
TTITLE7=Don't You Mind People Grinning in Your Face
TTITLE8=Like Uncle Charlie [*]
EXTD=
EXTT0=
EXTT1=
EXTT2=
EXTT3=
EXTT4=
EXTT5=
EXTT6=
EXTT7=
EXTT8=
PLAYORDER=
